<svg width="249" height="153" viewBox="0 0 249 153" fill="none" xmlns="http://www.w3.org/2000/svg">
<g clip-path="url(#clip0)">
<path d="M106.822 40.5918H126.722C131.59 40.5915 136.409 41.6492 140.906 43.7044C145.403 45.7597 149.489 48.7722 152.931 52.5701C156.373 56.368 159.103 60.8768 160.966 65.8391C162.828 70.8014 163.787 76.1199 163.787 81.4911V136.907H69.7591V81.4911C69.7591 70.644 73.664 60.2411 80.6146 52.571C87.5652 44.9009 96.9922 40.5918 106.822 40.5918V40.5918Z" fill="#58585F"/>
<path opacity="0.2" d="M108.998 42.8208H124.546C129.413 42.8205 134.233 43.8781 138.73 45.9334C143.227 47.9886 147.313 51.0012 150.754 54.799C154.196 58.5969 156.926 63.1057 158.789 68.068C160.652 73.0303 161.611 78.3489 161.611 83.7201V134.676H71.9358V83.7201C71.9358 72.8729 75.8406 62.47 82.7912 54.7999C89.7418 47.1298 99.1688 42.8208 108.998 42.8208V42.8208Z" fill="#212121"/>
<path d="M227.234 144.735V148.929C222.24 151.639 216.745 153.036 211.18 153.012H47.2687C45.9627 153.012 44.6684 152.954 43.3857 152.839C38.8272 152.443 34.3478 151.298 30.0955 149.443C29.2655 149.081 28.4515 148.692 27.6534 148.275C27.2732 148.079 26.8967 147.876 26.5237 147.668C26.2908 147.538 26.058 147.404 25.8272 147.269C24.4274 146.449 23.0714 145.541 21.7657 144.55V133.16C21.7657 131.319 22.4285 129.554 23.6081 128.252C24.7878 126.95 26.3878 126.219 28.056 126.219H208.979C210.501 126.222 211.971 126.834 213.115 127.941L225.086 139.518C225.76 140.169 226.301 140.971 226.671 141.87C227.042 142.77 227.234 143.747 227.234 144.735V144.735Z" fill="#E0E0E0"/>
<path d="M105.057 54.237C100.31 54.5828 95.582 55.1433 90.8719 55.9183C89.5333 56.1393 88.1752 56.3842 86.9541 57.0376C86.0052 57.5859 85.1305 58.2779 84.3553 59.0936C80.8589 62.5502 78.0436 66.763 76.0843 71.4705C74.8719 74.3888 74.0013 77.4752 72.8586 80.4175C68.7906 90.9257 61.412 99.5197 57.1176 109.917C56.1882 112.168 55.4047 114.517 55.0934 116.965C54.7713 119.496 55.137 122.45 57.0219 123.93C57.8925 124.61 58.9503 124.891 59.9864 125.131C73.0287 128.318 86.2228 130.696 99.5064 132.253C98.0677 130.72 97.5867 128.345 97.776 126.149C97.9654 123.954 98.7468 121.879 99.5173 119.844C91.9994 118.014 84.5004 116.093 77.0202 114.08C75.9036 113.78 74.5629 113.215 74.4257 111.957C74.3561 111.315 74.6434 110.698 74.9264 110.134C78.1166 103.759 81.942 97.7972 86.3316 92.3597C86.3316 99.0993 86.0291 106.711 86.0291 113.453H156.572C155.723 109.606 155.225 105.676 155.083 101.72C154.754 88.8073 158.694 75.9932 157.671 63.1071C157.575 61.9182 157.427 60.6932 156.863 59.6748C155.891 57.9166 153.949 57.1889 152.164 56.5884C145.321 54.2922 138.334 51.9696 131.182 52.1497C129.056 52.205 126.938 52.4788 124.824 52.755C118.384 53.5933 111.528 53.7638 105.057 54.237Z" fill="#00BA63"/>
<path d="M72.0185 131.7L77.1552 149.842C77.188 149.956 77.2532 150.057 77.3413 150.128C77.4294 150.199 77.5357 150.238 77.6449 150.238H99.6871L94.4633 129.101L72.4668 130.968C72.3902 130.975 72.316 131 72.2496 131.043C72.1833 131.086 72.1265 131.145 72.0835 131.215C72.0404 131.285 72.0123 131.366 72.001 131.449C71.9898 131.533 71.9957 131.619 72.0185 131.7V131.7Z" fill="#656478"/>
<path d="M109.699 62.0383C108.742 62.6459 107.625 62.8645 106.537 63.0735L99.5129 64.4185C98.146 64.6803 96.7073 64.9782 95.6539 65.975C93.4991 68.0094 93.9649 71.7539 94.6178 74.7995L95.9238 80.9099C96.9076 85.5023 97.9132 90.1499 99.9308 94.31C103.455 101.571 109.919 106.8 117.028 109.319C119.568 110.22 122.252 110.806 124.903 110.484C130.096 109.855 134.538 105.769 137.276 100.858C140.015 95.9457 141.318 90.2484 142.513 84.6328C143.66 79.2574 144.751 73.8051 144.677 68.2808C144.655 66.561 144.498 64.7644 143.667 63.3065C141.845 60.1048 137.716 59.8646 134.332 60.4554C133.805 60.5491 133.258 60.65 132.751 60.4746C131.228 59.951 131.193 57.6428 130.54 56.0408C129.306 53.0192 125.645 52.4836 122.652 52.7574C119.659 53.0312 114.999 53.3843 112.392 55.2553C109.884 57.0447 112.64 60.1672 109.699 62.0383Z" fill="#FBBEBE"/>
<path opacity="0.1" d="M109.699 62.0383C108.742 62.6459 107.625 62.8645 106.537 63.0735L99.5129 64.4185C98.146 64.6803 96.7073 64.9782 95.6539 65.975C93.4991 68.0094 93.9649 71.7539 94.6178 74.7995L95.9238 80.9099C96.9076 85.5023 97.9132 90.1499 99.9308 94.31C103.455 101.571 109.919 106.8 117.028 109.319C119.568 110.22 122.252 110.806 124.903 110.484C130.096 109.855 134.538 105.769 137.276 100.858C140.015 95.9457 141.318 90.2484 142.513 84.6328C143.66 79.2574 144.751 73.8051 144.677 68.2808C144.655 66.561 144.498 64.7644 143.667 63.3065C141.845 60.1048 137.716 59.8646 134.332 60.4554C133.805 60.5491 133.258 60.65 132.751 60.4746C131.228 59.951 131.193 57.6428 130.54 56.0408C129.306 53.0192 125.645 52.4836 122.652 52.7574C119.659 53.0312 114.999 53.3843 112.392 55.2553C109.884 57.0447 112.64 60.1672 109.699 62.0383Z" fill="black"/>
<path d="M103.886 68.9221C104.948 71.3816 105.744 73.99 107.029 76.3175C108.049 78.1669 109.358 79.7978 110.659 81.4191C114.031 85.6272 117.446 89.8689 121.618 93.073C123.346 83.2774 127.52 74.2095 133.67 66.8925C135.468 64.762 137.718 62.6628 140.356 62.742C141.993 62.7925 143.504 63.6884 144.866 64.6851C146.39 65.7972 147.831 67.087 148.925 68.6891C150.656 71.2399 151.402 74.4704 151.537 77.6529C151.672 80.8354 151.224 84.0107 150.78 87.1572L148.495 103.42C148.362 104.362 148.177 105.402 147.48 105.966C147.085 106.243 146.639 106.42 146.174 106.485C137.866 108.27 129.304 107.112 120.839 107.021C111.48 106.922 101.861 108.099 92.9963 104.813C92.5327 104.641 92.0516 104.441 91.7382 104.03C91.5323 103.721 91.3844 103.369 91.3029 102.995C89.2373 95.6166 90.8937 87.688 92.1191 80.086C93.0894 74.0617 93.7802 67.9866 94.189 61.8845C94.226 61.3345 99.7023 62.5499 100.314 62.939C101.979 64.027 103.085 67.0678 103.886 68.9221Z" fill="#00BA63"/>
<path d="M118.188 64.7308C128.285 64.7308 136.471 55.6977 136.471 44.5549C136.471 33.4121 128.285 24.3791 118.188 24.3791C108.09 24.3791 99.9047 33.4121 99.9047 44.5549C99.9047 55.6977 108.09 64.7308 118.188 64.7308Z" fill="#FBBEBE"/>
<path d="M110.761 4.9647C105.884 5.64683 100.619 6.54754 97.171 10.4146C95.2425 12.5763 94.1129 15.4585 93.1835 18.312C91.7426 22.7555 90.6695 27.4391 91.0069 32.154C91.3073 36.3717 92.722 40.6855 91.5772 44.7255C91.0504 46.5845 90.0166 48.2082 89.2134 49.94C87.7246 53.1561 87.0238 56.7613 86.7669 60.3617C86.5885 62.8381 86.6233 65.3865 87.3611 67.7331C88.1469 70.2311 89.6792 72.3568 90.6499 74.773C92.0865 78.3422 92.2301 82.3582 92.3411 86.2613C92.4521 90.1643 92.5457 94.041 92.6284 97.9296C92.6807 100.375 92.685 102.993 91.4596 105.032C95.9847 103.031 100.573 100.99 104.445 97.723C108.317 94.4565 111.451 89.7464 111.952 84.395C112.357 80.0572 111.029 75.7818 109.884 71.6074C107.055 61.2793 105.226 50.269 107.285 39.7224C108.028 35.925 109.832 31.6857 113.295 30.9867C115.408 30.5616 117.518 31.6256 119.422 32.7257C123.923 35.3245 128.564 38.6871 130.24 43.9785C131.763 48.763 130.481 54.0928 128.498 58.6612C126.516 63.2296 123.817 67.4305 122.276 72.2054C119.91 79.5312 120.576 88.1083 124.507 94.5622C128.437 101.016 135.701 104.986 142.685 103.944C142.139 101.34 140.426 99.2362 139.507 96.7623C137.838 92.2684 138.963 87.0995 140.759 82.6656C142.555 78.2318 145.006 74.0981 146.129 69.3904C146.921 66.0758 147.017 62.6123 147.012 59.1848C147.012 53.7902 146.771 48.3932 146.301 43.0225C145.83 37.6519 145.112 32.2141 143.562 27.0476C142.317 22.9044 140.504 18.898 137.792 15.7203C134.906 12.3361 131.149 10.0423 127.46 7.79412C125.253 6.45386 122.998 5.0968 120.521 4.59481C118.562 4.1985 116.503 3.63405 114.505 3.59802C113.147 3.57641 111.719 3.90066 110.761 4.9647Z" fill="black"/>
<path d="M145.173 31.0057L133.41 28.4873C133.068 28.414 132.737 28.6607 132.671 29.0384L127.035 61.0919C126.969 61.4695 127.192 61.8351 127.534 61.9083L139.297 64.4268C139.639 64.5 139.971 64.2533 140.037 63.8756L145.673 31.8221C145.739 31.4445 145.515 31.0789 145.173 31.0057Z" fill="#7C7C85"/>
<path d="M146.062 31.1961L134.3 28.6776C133.957 28.6044 133.626 28.8511 133.56 29.2288L127.924 61.2823C127.858 61.6599 128.081 62.0255 128.424 62.0987L140.186 64.6171C140.528 64.6904 140.86 64.4437 140.926 64.066L146.562 32.0125C146.628 31.6349 146.404 31.2693 146.062 31.1961Z" fill="#535461"/>
<path d="M139.781 37.3623C140.011 36.0535 139.8 34.9076 139.311 34.8027C138.821 34.6979 138.237 35.6738 138.007 36.9826C137.777 38.2913 137.988 39.4373 138.477 39.5421C138.967 39.647 139.551 38.6711 139.781 37.3623Z" fill="black"/>
<path d="M142.566 48.2778C141.991 47.1562 141.377 45.9961 140.409 45.2779C139.852 44.9011 139.253 44.6048 138.628 44.3964C136.519 43.5822 134.375 42.7607 132.144 42.631C131.781 42.6118 131.365 42.631 131.128 42.9385C130.64 43.5702 131.413 44.43 132.081 44.8119L137.396 47.8503L132.497 47.2787C131.785 47.1946 130.771 47.4084 130.823 48.1962C130.858 48.7126 131.371 48.9936 131.815 49.1569C134.961 50.3579 138.596 51.2994 140.317 54.4411C138.023 54.2009 135.679 53.9607 133.43 54.5179C132.815 54.6717 132.177 54.9095 131.774 55.4451C131.371 55.9807 131.326 56.8862 131.833 57.3113C132.146 57.5683 132.569 57.5755 132.96 57.5515C134.556 57.4675 136.193 57.1168 137.725 57.6188C139.257 58.1208 140.618 59.8934 140.089 61.5555C141.447 61.69 143.053 61.5555 144.309 60.9094C145.693 60.1888 145.661 58.8341 145.576 57.2009C145.395 54.0015 143.956 51.016 142.566 48.2778Z" fill="#FBBEBE"/>
<path opacity="0.1" d="M141.192 100.637C139.974 91.1846 138.303 81.8105 136.186 72.5537C135.098 67.7499 133.861 62.8645 134.173 57.9214C138.669 58.5531 142.698 59.0215 146.843 56.9943C146.91 59.5907 148.616 61.798 149.237 64.308C149.652 65.9893 149.496 67.7691 149.659 69.5009C149.822 71.2326 150.312 72.9116 150.732 74.5953C152.816 82.9388 153.308 91.669 152.175 100.233C148.329 100.737 145.029 101.292 141.192 100.637Z" fill="#00BA63"/>
<path d="M140.539 100.637C139.321 91.1846 137.65 81.8105 135.533 72.5537C134.445 67.7499 133.208 62.8645 133.52 57.9214C138.017 58.5531 142.045 59.0215 146.19 56.9943C146.257 59.5907 147.963 61.798 148.584 64.308C148.999 65.9893 148.843 67.7691 149.006 69.5009C149.169 71.2326 149.659 72.9116 150.079 74.5953C152.163 82.9388 152.655 91.669 151.522 100.233C147.676 100.737 144.376 101.292 140.539 100.637Z" fill="#00BA63"/>
<path d="M77.6231 147.42L79.754 89.0859C79.7879 88.1586 80.1478 87.2824 80.7573 86.643C81.3668 86.0036 82.178 85.6513 83.0189 85.6608L167.148 86.5495C167.594 86.5546 168.034 86.6613 168.44 86.8629C168.847 87.0646 169.211 87.3568 169.511 87.7213C169.81 88.0857 170.038 88.5146 170.18 88.9809C170.322 89.4472 170.376 89.9409 170.336 90.4309L165.892 146.316C165.822 147.194 165.46 148.013 164.875 148.615C164.29 149.216 163.524 149.557 162.725 149.572L80.9119 151.134C80.4715 151.142 80.0342 151.051 79.6268 150.866C79.2193 150.681 78.8504 150.407 78.5425 150.059C78.2346 149.711 77.9943 149.298 77.8362 148.844C77.6781 148.391 77.6056 147.906 77.6231 147.42Z" fill="#535461"/>
<path d="M203.727 108.868L203.553 110.515L200.724 137.143C193.347 142.818 187.61 137.364 187.56 137.143L183.994 110.391L183.792 108.868H203.727Z" fill="#00BA63"/>
<path opacity="0.1" d="M203.727 108.868L203.553 110.515C195.243 115.848 186.378 111.697 183.994 110.391L183.792 108.868H203.727Z" fill="black"/>
<path d="M183.376 107.422V109.824C183.376 109.824 194.368 116.876 204.271 109.824V107.422H183.376Z" fill="#212121"/>
<path d="M184.654 104.249C184.654 104.249 184.334 105.87 183.376 106.012V108.056H204.271V106.223C204.271 106.223 202.994 105.87 203.183 104.249H184.654Z" fill="#212121"/>
<path d="M193.761 107.422C198.966 107.422 203.185 106.08 203.185 104.424C203.185 102.769 198.966 101.427 193.761 101.427C188.556 101.427 184.336 102.769 184.336 104.424C184.336 106.08 188.556 107.422 193.761 107.422Z" fill="#212121"/>
<path opacity="0.1" d="M193.761 107.422C198.966 107.422 203.185 106.08 203.185 104.424C203.185 102.769 198.966 101.427 193.761 101.427C188.556 101.427 184.336 102.769 184.336 104.424C184.336 106.08 188.556 107.422 193.761 107.422Z" fill="#212121"/>
<path opacity="0.1" d="M202.034 104.249C202.034 105.45 198.46 106.435 194.048 106.435H193.813C190.851 106.411 188.291 105.954 186.985 105.272C186.395 104.965 186.06 104.616 186.06 104.249C186.06 103.639 186.974 103.086 188.454 102.69C190.293 102.246 192.172 102.036 194.055 102.063C198.46 102.063 202.034 103.041 202.034 104.249Z" fill="#212121"/>
<path opacity="0.1" d="M193.813 106.435C190.851 106.411 188.291 105.954 186.985 105.272L188.448 102.681L193.813 106.435Z" fill="#212121"/>
<path opacity="0.1" d="M185.466 104.417C185.353 104.391 185.202 104.434 185.181 104.559C185.178 104.622 185.193 104.685 185.224 104.739C185.474 105.174 185.836 105.517 186.265 105.721C186.338 105.767 186.418 105.795 186.502 105.805C186.545 105.811 186.589 105.802 186.628 105.78C186.667 105.758 186.699 105.723 186.72 105.68C186.732 105.644 186.736 105.606 186.734 105.567C186.731 105.528 186.721 105.491 186.704 105.457C186.638 105.327 186.545 105.216 186.434 105.13C186.143 104.878 185.845 104.487 185.466 104.417Z" fill="black"/>
<path d="M123.857 121.227C125.434 121.227 126.713 119.833 126.713 118.113C126.713 116.394 125.434 115 123.857 115C122.279 115 121 116.394 121 118.113C121 119.833 122.279 121.227 123.857 121.227Z" fill="white"/>
<path d="M188.76 87.4427C188.493 87.4927 188.191 87.5714 188.06 87.8306C187.851 88.2419 188.229 88.7056 188.573 88.9883C189.209 89.5104 189.879 90.0233 190.312 90.7521C190.744 91.4809 190.88 92.4979 190.407 93.1964C189.79 94.1084 188.318 94.3046 188.175 95.4271C188.084 96.1477 188.656 96.7626 189.235 97.1242C190.664 98.0166 192.507 98.2548 193.543 99.6513C193.971 98.6913 194.929 98.1364 195.884 97.8994C196.839 97.6624 197.832 97.6801 198.8 97.5194C199.112 97.4675 199.465 97.3634 199.604 97.0543C199.875 96.4556 199.104 95.7375 199.37 95.1365C199.572 94.679 200.168 94.7145 200.602 94.5313C201.31 94.233 201.602 93.2401 201.401 92.4425C201.2 91.6449 200.633 91.0215 200.036 90.5104C198.428 89.1331 196.494 88.3231 194.538 87.7404C193.628 87.4695 192.561 87.0445 191.616 87.0035C190.704 86.9638 189.663 87.2744 188.76 87.4427Z" fill="#E0E0E0"/>
</g>
<defs>
<clipPath id="clip0">
<rect width="249" height="153" fill="white"/>
</clipPath>
</defs>
</svg>
